<svg xmlns="http://www.w3.org/2000/svg" viewBox="0 0 933.82 926.76"><g fill="gray"><path d="M541.65 79.27a77.14 77.14 0 1 1-154.29 0 77.14 77.14 0 0 1 154.29 0zM464.49 161.37c-94 0-171.33 71.22-181 162.66h34.81c9.49-72.3 71.3-128.09 146.2-128.09 74.88 0 136.72 55.8 146.21 128.09h34.81c-9.67-91.43-87.03-162.66-181.03-162.66z"/><path d="M464.5 159.2c-59.2 0-107.19 85.75-107.19 191.5 0 3.23.07 6.43.16 9.63 21.55-36.7 61.39-61.35 107.03-61.35 45.63 0 85.5 24.62 107.06 61.31.08-3.18.12-6.37.12-9.6 0-105.74-47.98-191.5-107.19-191.5zM387.34 845.6a77.14 77.14 0 1 1 154.29 0 77.14 77.14 0 0 1-154.29 0zM464.54 763.5c94 0 171.33-71.22 181-162.66h-34.81c-9.49 72.3-71.3 128.09-146.2 128.09-74.88 0-136.72-55.8-146.21-128.09H283.5c9.67 91.43 87.03 162.66 181.03 162.66z"/><path d="M464.54 765.67c59.2 0 107.19-85.75 107.19-191.5 0-3.23-.07-6.43-.16-9.63-21.55 36.7-61.39 61.35-107.03 61.35-45.63 0-85.5-24.62-107.06-61.31-.08 3.18-.12 6.37-.12 9.6 0 105.74 47.98 191.5 107.19 191.5zM847.68 539.57a77.14 77.14 0 1 1 0-154.29 77.14 77.14 0 0 1 0 154.29zM765.58 462.42c0-94-71.22-171.33-162.66-181v34.81c72.3 9.49 128.1 71.3 128.1 146.2 0 74.88-55.8 136.72-128.1 146.21v34.81c91.44-9.67 162.66-87.03 162.66-181.03z"/><path d="M767.75 462.42c0-59.2-85.75-107.19-191.5-107.19-3.23 0-6.43.07-9.62.16 36.7 21.55 61.34 61.39 61.34 107.03 0 45.63-24.62 85.5-61.31 107.06 3.18.08 6.37.12 9.6.12 105.74 0 191.5-47.98 191.5-107.19zM81.3 385.3a77.14 77.14 0 1 1 0 154.29 77.14 77.14 0 0 1 0-154.29zM163.4 462.45c0 94 71.22 171.33 162.66 181v-34.81c-72.3-9.49-128.09-71.3-128.09-146.2 0-74.88 55.8-136.72 128.09-146.21v-34.81c-91.43 9.67-162.66 87.03-162.66 181.03z"/><path d="M161.2 462.45c0 59.2 85.75 107.19 191.5 107.19 3.23 0 6.43-.07 9.63-.16-36.7-21.55-61.35-61.39-61.35-107.03 0-45.63 24.62-85.5 61.31-107.06-3.18-.08-6.37-.12-9.6-.12-105.74 0-191.5 47.98-191.5 107.19z"/></g><g fill="#bf0000"><path d="M537.45 77.14a77.14 77.14 0 1 1-154.29 0 77.14 77.14 0 0 1 154.29 0zM460.29 159.24c-94 0-171.33 71.22-181 162.66h34.81c9.49-72.3 71.3-128.09 146.2-128.09 74.88 0 136.72 55.8 146.21 128.09h34.81c-9.67-91.43-87.03-162.66-181.03-162.66z"/><path d="M460.3 157.07c-59.2 0-107.19 85.75-107.19 191.5 0 3.23.07 6.43.16 9.63 21.55-36.7 61.39-61.35 107.03-61.35 45.63 0 85.5 24.62 107.06 61.31.08-3.18.12-6.37.12-9.6 0-105.74-47.98-191.5-107.19-191.5z"/></g><g fill="#3f7f00"><path d="M383.14 843.47a77.14 77.14 0 1 1 154.29 0 77.14 77.14 0 0 1-154.29 0zM460.34 761.37c94 0 171.33-71.22 181-162.66h-34.81c-9.49 72.3-71.3 128.09-146.2 128.09-74.88 0-136.72-55.8-146.21-128.09H279.3c9.67 91.43 87.03 162.66 181.03 162.66z"/><path d="M460.34 763.54c59.2 0 107.19-85.75 107.19-191.5 0-3.23-.07-6.43-.16-9.63-21.55 36.7-61.39 61.35-107.03 61.35-45.63 0-85.5-24.62-107.06-61.31-.08 3.18-.12 6.37-.12 9.6 0 105.74 47.98 191.5 107.19 191.5z"/></g><g fill="#007fff"><path d="M843.48 537.46a77.14 77.14 0 1 1 0-154.29 77.14 77.14 0 0 1 0 154.29z"/><path d="M763.55 460.3c0-59.2-85.75-107.19-191.5-107.19-3.23 0-6.43.07-9.63.16 36.7 21.55 61.35 61.39 61.35 107.03 0 45.63-24.62 85.5-61.31 107.06 3.18.08 6.37.12 9.6.12 105.74 0 191.5-47.98 191.5-107.19z"/><path d="M761.38 460.3c0-94-71.22-171.33-162.66-181v34.81c72.3 9.49 128.09 71.3 128.09 146.2 0 74.88-55.8 136.72-128.09 146.21v34.81c91.43-9.67 162.66-87.03 162.66-181.03z"/></g><g fill="#003f7f"><path d="M77.1 383.17a77.14 77.14 0 1 1 0 154.29 77.14 77.14 0 0 1 0-154.29zM159.2 460.33c0 94 71.22 171.33 162.66 181v-34.81c-72.3-9.49-128.09-71.3-128.09-146.2 0-74.88 55.8-136.72 128.09-146.21V279.3c-91.43 9.67-162.66 87.03-162.66 181.03z"/><path d="M157 460.32c0 59.2 85.75 107.19 191.5 107.19 3.23 0 6.43-.07 9.63-.16-36.7-21.55-61.35-61.39-61.35-107.03 0-45.63 24.62-85.5 61.31-107.06-3.18-.08-6.37-.12-9.6-.12-105.74 0-191.5 47.98-191.5 107.19z"/></g><path fill="#fff" d="M753.74 461.19c0-46.25-66.99-83.74-149.61-83.74-2.53 0-5.03.06-7.52.12a96.84 96.84 0 0 1 47.92 83.62 96.89 96.89 0 0 1-47.9 83.64c2.5.07 4.98.1 7.5.1 82.62 0 149.61-37.49 149.61-83.74z"/></svg>