<svg xmlns="http://www.w3.org/2000/svg" width="816" height="1056" fill-rule="evenodd" clip-rule="evenodd" image-rendering="optimizeQuality" shape-rendering="geometricPrecision" text-rendering="geometricPrecision" viewBox="0 0 215.9 279.4"><defs><style>.str0{stroke:#1f1a17;stroke-width:.2}.fil6{fill:none}.fil10{fill:#1f1a17}.fil3{fill:#3f4446}.fil12{fill:#605d5c}.fil4{fill:#aaa9a9}.fil1{fill:#fff}.fil13{fill:#16acad}.fil8{fill:#f8cfb5}.fil7,.fil9{fill:#1f1a17;fill-rule:nonzero}.fil9{fill:#fffcc8}</style></defs><path d="M138.15 36.28a21.87 21.87 0 0 1 13.82 38.8 51.66 51.66 0 0 1 2.12 14.68c0 29.53-24.87 53.48-55.53 53.48s-55.53-23.95-55.53-53.48c0-2.59.2-5.13.56-7.61A21.85 21.85 0 1 1 67.38 45.5a56.76 56.76 0 0 1 31.18-9.22c8.95 0 17.4 2.04 24.9 5.67a21.78 21.78 0 0 1 14.69-5.67z" style="fill:#bb825b"/><path d="M81.13 150.85a64.57 64.57 0 0 1 10.98-2.16v14.28h14.3v-14.01c2.8.4 5.61 1.04 8.41 1.89L126.24 237l9.38 15.78-78.95-.01 12.45-17.82 12-84.1z" class="fil1 str0"/><path d="M70.9 244.51h15.91l-.14 8.27-15.64-.01z" class="fil1 str0"/><path d="m92.11 150.27 7.16 12.71 7.15-12.71v102.51H92.11z" class="str0" style="fill:#75c5f0"/><path d="M99.37 186.16a3.96 3.96 0 1 1 0 7.91 3.96 3.96 0 0 1 0-7.91z" class="fil3 str0"/><path d="m73.47 191.25 14.06 5.83-6.08 7.78-14.07-5.83z" class="fil4 str0"/><path d="m65.45 191.94 27.34 11.33-19.4 46.83-27.35-11.33z" class="str0" style="fill:#96aebe"/><path d="m66.29 194.9 22.32 9.24-17.49 42.2-22.31-9.24z" class="fil1 str0"/><path d="m67.17 195.14 22.32 9.25L72 246.59c-7.3-1.63-13.82-6.5-21.5-7.57l16.67-43.88z" class="fil1 str0"/><path d="m73.66 191.33 14.07 5.83-3.64 8.79-14.07-5.83z" class="fil4 str0"/><path d="m56.04 231.25 3.04 1.35-1.6 3.62-3.05-1.34zM71.91 221.52l3.04 1.35-1.6 3.62-3.04-1.35z" class="fil6 str0"/><path d="m67.88 203.66.78-1.7.58.27c.13.06.23.12.3.17.08.06.14.14.19.23.05.12.07.25.06.38 0 .14-.05.29-.12.44a1.3 1.3 0 0 1-.2.32.9.9 0 0 1-.23.2.67.67 0 0 1-.22.08.7.7 0 0 1-.25-.01 1.28 1.28 0 0 1-.28-.1l-.61-.28zm.31-.1.36.17c.12.05.2.08.28.09.08 0 .14 0 .2-.02a.59.59 0 0 0 .22-.16c.07-.07.13-.17.2-.3a.87.87 0 0 0 .1-.45.48.48 0 0 0-.13-.3.96.96 0 0 0-.27-.16l-.36-.16-.6 1.3zm1.37.88.56-1.23.2.08-.1.19c.1-.07.17-.1.22-.11.05-.01.1 0 .15.02.07.03.13.08.18.16l-.16.16a.32.32 0 0 0-.13-.11.22.22 0 0 0-.14-.02.25.25 0 0 0-.13.08.88.88 0 0 0-.15.23l-.3.64-.2-.1zm.72.33.1-.24.25.1-.11.25-.24-.11zm.97.44 1.43-1.4.24.12-.09 2.01-.25-.11.04-.6-.71-.34-.43.43-.23-.1zm.8-.47.58.27.04-.55.04-.41c-.07.1-.15.19-.24.28l-.41.41zm.93 1.27.78-1.7.21.1-.78 1.7-.2-.1zm1.56.24.2.13c-.09.1-.2.17-.32.2a.63.63 0 0 1-.4-.06.62.62 0 0 1-.35-.36.71.71 0 0 1 .05-.54c.1-.2.23-.34.38-.4a.6.6 0 0 1 .5.01c.16.08.27.2.32.36.06.16.04.34-.06.54l-.02.06-.92-.43a.52.52 0 0 0-.03.37c.04.1.1.18.2.22.08.04.16.05.23.03a.44.44 0 0 0 .22-.13zm-.53-.65.69.31c.03-.1.04-.2.02-.27a.35.35 0 0 0-.2-.23c-.1-.05-.19-.05-.28-.02s-.17.1-.23.2zm1.5-.2.1-.23.21.1-.1.24-.22-.1zm-1.16 1.82.12-.16.09.06c.04.02.08.02.11 0 .04-.01.08-.08.13-.2l.6-1.28.2.1-.6 1.29c-.06.15-.13.25-.2.29-.08.05-.18.05-.3 0a.66.66 0 0 1-.15-.1zm1.88.1c-.1.04-.2.05-.28.04a.71.71 0 0 1-.25-.06c-.14-.07-.23-.15-.27-.25a.36.36 0 0 1 0-.3c.04-.06.08-.1.13-.14.05-.04.1-.07.16-.08h.18l.2.06c.18.06.31.09.4.1l.03-.05c.04-.09.05-.16.02-.21-.03-.07-.1-.13-.2-.18-.1-.05-.18-.06-.24-.05-.06.01-.13.06-.19.13l-.19-.12a.56.56 0 0 1 .19-.17.44.44 0 0 1 .24-.04c.1.01.2.04.3.09.1.05.18.1.24.15.05.06.09.11.1.16v.18l-.08.2-.13.27-.15.37a.5.5 0 0 0-.02.18l-.22-.1c0-.06.01-.11.03-.17zm.2-.47c-.1 0-.22-.03-.38-.08a.86.86 0 0 0-.2-.04.2.2 0 0 0-.19.12.2.2 0 0 0 0 .17c.03.05.08.1.16.14.08.03.16.05.24.04.08 0 .15-.03.2-.08.05-.04.1-.1.13-.2l.04-.07zm.25.87.57-1.23.18.08-.08.18c.15-.1.32-.1.49-.03.07.04.13.08.18.14.05.05.08.11.1.17l-.01.18-.08.21-.35.76-.21-.1.34-.75a.62.62 0 0 0 .07-.2c0-.05-.01-.1-.04-.14a.3.3 0 0 0-.13-.1.37.37 0 0 0-.27-.03c-.09.03-.17.12-.24.28l-.31.67-.21-.1zm2.11.97.08-.16a.42.42 0 0 1-.43.03.53.53 0 0 1-.23-.2.59.59 0 0 1-.1-.32c0-.12.04-.24.1-.37a.97.97 0 0 1 .21-.3.53.53 0 0 1 .78.04c.04.06.07.12.08.19l.28-.61.21.1-.78 1.69-.2-.09zm-.37-.92c-.07.16-.1.3-.06.4s.09.19.18.23c.09.04.18.04.28 0 .1-.05.18-.15.25-.3.08-.17.1-.31.08-.42a.33.33 0 0 0-.47-.22c-.1.05-.19.15-.26.31zm.9 1.16.56-1.23.19.09-.09.18c.09-.06.16-.1.21-.1.06-.02.1-.01.16.01.07.03.13.09.18.17l-.16.16a.32.32 0 0 0-.13-.12.22.22 0 0 0-.14-.01.25.25 0 0 0-.13.07.89.89 0 0 0-.15.23l-.3.65-.2-.1zm1.66.58c-.11.03-.2.04-.29.04a.71.71 0 0 1-.25-.07c-.13-.06-.22-.14-.26-.24a.36.36 0 0 1 0-.3c.03-.06.07-.11.12-.15.05-.04.1-.06.16-.07h.19l.2.06c.17.05.3.09.4.1l.03-.06c.04-.08.04-.15.02-.2-.03-.08-.1-.14-.2-.19-.1-.04-.18-.06-.25-.04-.06 0-.12.05-.18.13l-.2-.12a.56.56 0 0 1 .2-.17c.06-.03.14-.05.24-.04s.19.04.3.09c.1.04.18.1.23.15.06.06.1.1.1.16.02.05.02.11 0 .17 0 .04-.03.1-.07.2l-.13.28c-.1.2-.14.32-.16.37a.5.5 0 0 0-.01.17l-.22-.1c0-.05 0-.1.03-.17zm.2-.47c-.1 0-.22-.03-.38-.08a.86.86 0 0 0-.2-.04.2.2 0 0 0-.2.11.2.2 0 0 0 0 .17c.03.06.09.1.17.14.08.04.16.05.24.05s.14-.03.2-.08c.04-.04.09-.1.13-.2l.04-.07zm1.04.64.21.07c-.05.13-.07.23-.05.3.02.07.07.12.15.15.06.03.11.04.16.03.06 0 .1-.03.14-.07.03-.03.07-.1.12-.2l.54-1.17.22.1-.53 1.16a.93.93 0 0 1-.2.31.4.4 0 0 1-.25.1.6.6 0 0 1-.3-.06c-.14-.07-.24-.16-.28-.28-.03-.13-.01-.27.07-.44zm1.1 1.1.12-.24.23.11-.1.24-.24-.11zM66.6 207.59l.64-1.38.52.24.2.11c.07.04.11.1.14.15.04.05.05.1.05.18a.47.47 0 0 1-.3.45c-.1.05-.25.03-.45-.06l-.35-.17-.26.56-.18-.08zm.52-.64.36.17c.12.05.21.07.28.05a.26.26 0 0 0 .16-.16.27.27 0 0 0 .02-.16.22.22 0 0 0-.07-.14.87.87 0 0 0-.17-.09l-.35-.16-.23.5zm1.46 1.4a.58.58 0 0 1-.43-.02c-.12-.06-.19-.12-.22-.2a.3.3 0 0 1 0-.25.3.3 0 0 1 .23-.18h.15l.16.05c.14.05.25.07.33.08l.02-.04c.03-.07.04-.13.02-.17-.03-.06-.08-.1-.17-.15-.08-.03-.14-.05-.2-.04-.05.01-.1.05-.15.11l-.15-.1c.05-.06.1-.1.15-.13a.36.36 0 0 1 .2-.03c.07 0 .15.03.24.07.08.03.15.08.2.12a.3.3 0 0 1 .08.13.3.3 0 0 1 0 .14l-.07.16-.1.22-.13.3a.41.41 0 0 0-.01.15l-.18-.08c0-.05 0-.1.03-.14zm.16-.39c-.08 0-.18-.02-.31-.06a.7.7 0 0 0-.16-.03c-.04 0-.07 0-.1.02a.16.16 0 0 0-.06.07.16.16 0 0 0 0 .14c.02.04.07.08.13.11.07.03.13.04.2.04a.3.3 0 0 0 .16-.07.45.45 0 0 0 .1-.15l.04-.07zm1.02.64.15.1a.47.47 0 0 1-.26.2.45.45 0 0 1-.32-.03.47.47 0 0 1-.27-.28c-.04-.13-.02-.28.05-.45.05-.1.11-.19.19-.25.07-.07.15-.1.24-.11.1 0 .18.01.27.05.1.05.18.12.23.2.04.09.05.19.02.3l-.17-.05a.3.3 0 0 0-.02-.2.24.24 0 0 0-.12-.1.29.29 0 0 0-.25-.01c-.08.03-.15.12-.21.25s-.08.24-.06.33c.03.08.08.14.16.18.07.03.13.04.2.02a.33.33 0 0 0 .17-.15zm.68-.68.1-.19.16.08-.09.2-.17-.09zm-.54 1.19.46-1 .17.08-.46 1-.17-.08zm1.26.19.16.1a.47.47 0 0 1-.26.17.5.5 0 0 1-.33-.05.5.5 0 0 1-.28-.3.58.58 0 0 1 .05-.43.6.6 0 0 1 .3-.33.48.48 0 0 1 .4.01c.14.06.23.16.27.29a.6.6 0 0 1-.05.44l-.02.04-.75-.34a.42.42 0 0 0-.02.3.3.3 0 0 0 .17.18c.06.03.12.04.18.02a.35.35 0 0 0 .18-.1zm-.43-.53.55.25a.37.37 0 0 0 .03-.21.29.29 0 0 0-.17-.2.3.3 0 0 0-.23-.01.34.34 0 0 0-.18.17zm.67 1.03.45-1 .16.07-.07.14a.4.4 0 0 1 .4-.02l.15.11c.04.05.06.1.07.14v.15l-.07.17-.28.6-.17-.07.28-.6a.5.5 0 0 0 .05-.17c0-.04-.01-.08-.04-.11a.24.24 0 0 0-.1-.09.3.3 0 0 0-.22-.02c-.07.03-.14.1-.2.23l-.25.54-.16-.07zm1.5.5-.04.17a.7.7 0 0 1-.14-.05.32.32 0 0 1-.13-.1.18.18 0 0 1-.03-.1c0-.04.02-.1.07-.21l.26-.57-.12-.06.06-.13.12.06.12-.25.21-.03-.16.35.17.08-.06.13-.17-.08-.27.59a.33.33 0 0 0-.03.1l.01.04.06.04.07.03zm.93.23.16.1a.47.47 0 0 1-.26.17.5.5 0 0 1-.32-.05.5.5 0 0 1-.29-.3.58.58 0 0 1 .05-.43.6.6 0 0 1 .3-.33.48.48 0 0 1 .4.01c.14.06.23.16.27.29a.6.6 0 0 1-.05.44l-.02.05-.74-.35a.42.42 0 0 0-.03.3.3.3 0 0 0 .17.18c.06.03.12.04.18.02a.35.35 0 0 0 .18-.1zm-.43-.53.56.25a.37.37 0 0 0 .02-.21.29.29 0 0 0-.16-.2.3.3 0 0 0-.24-.01.34.34 0 0 0-.18.17zm1.09.24.08-.19.2.09-.1.2-.18-.1zm-.38.8.1-.18.19.08-.1.2-.19-.1zM65.7 209.3l.18.05c-.04.11-.06.2-.04.25.02.05.06.1.12.12.04.02.09.03.13.02.04 0 .08-.02.1-.05a.63.63 0 0 0 .1-.16l.44-.95.19.08-.44.94c-.05.12-.1.2-.16.25s-.12.08-.2.08a.48.48 0 0 1-.24-.05c-.12-.05-.2-.13-.23-.23s-.01-.21.05-.35zm1.51 1.17.07-.15a.4.4 0 0 1-.4.02.45.45 0 0 1-.15-.1.3.3 0 0 1-.07-.14v-.15l.07-.16.28-.62.17.08-.25.55a1.1 1.1 0 0 0-.07.18.2.2 0 0 0 .01.14.3.3 0 0 0 .27.12c.06 0 .11-.03.15-.06.04-.04.08-.1.12-.18l.24-.54.17.08-.46 1-.15-.07zm1.12.37a.58.58 0 0 1-.43-.02c-.11-.06-.18-.12-.22-.2a.3.3 0 0 1 .01-.25.3.3 0 0 1 .23-.18h.14l.17.05.32.08.03-.04c.03-.07.03-.13.01-.17-.02-.06-.08-.1-.16-.15-.08-.03-.15-.05-.2-.04-.05.01-.1.05-.15.11l-.15-.1c.04-.06.1-.1.15-.13a.36.36 0 0 1 .2-.04c.07.01.15.03.24.07.08.04.15.08.2.13a.3.3 0 0 1 .07.13.3.3 0 0 1 0 .14c0 .03-.03.08-.06.16l-.1.22-.13.3a.41.41 0 0 0-.01.15l-.18-.09c0-.04 0-.09.02-.13zm.16-.39c-.07 0-.17-.02-.3-.06a.7.7 0 0 0-.16-.04c-.04 0-.07.01-.1.03a.16.16 0 0 0-.06.07.16.16 0 0 0 0 .13c.02.05.07.09.13.12.07.03.13.04.2.04a.3.3 0 0 0 .16-.07.45.45 0 0 0 .1-.16l.03-.06zm.2.7.47-1 .15.07-.07.15a.4.4 0 0 1 .4-.02l.15.1c.04.05.06.1.07.14v.15l-.07.17-.28.61-.17-.07.28-.61a.5.5 0 0 0 .05-.16l-.03-.12a.24.24 0 0 0-.1-.08.3.3 0 0 0-.23-.02c-.07.02-.14.1-.2.22l-.25.55-.16-.08zm1.63.75.63-1.38.52.24c.1.04.16.08.2.11.07.04.12.1.15.15.03.05.04.1.05.18 0 .07-.02.14-.05.2a.47.47 0 0 1-.25.25c-.1.05-.26.03-.46-.06l-.35-.17-.26.56-.18-.08zm.52-.64.35.17c.12.05.21.07.28.05a.26.26 0 0 0 .16-.16.27.27 0 0 0 .03-.16.22.22 0 0 0-.08-.14.86.86 0 0 0-.17-.09l-.35-.16-.22.5zm.54 1.13.1-.2.18.1-.09.19-.19-.1zm1.04.47.63-1.37.18.08-.56 1.22.68.3-.07.17-.86-.4zm1.22-.04c.08-.18.2-.3.34-.34a.51.51 0 0 1 .37.04.5.5 0 0 1 .27.29c.05.13.03.27-.04.43a.73.73 0 0 1-.2.28.45.45 0 0 1-.25.09.54.54 0 0 1-.26-.05.5.5 0 0 1-.28-.29c-.05-.13-.03-.28.05-.45zm.17.08c-.06.13-.07.24-.05.33a.3.3 0 0 0 .17.2.3.3 0 0 0 .25 0c.09-.05.16-.13.22-.26s.07-.23.05-.32a.3.3 0 0 0-.17-.2.3.3 0 0 0-.25 0c-.09.04-.16.13-.22.25zm.49-.53.24-.2.23.1-.33.17-.14-.07zm.07 1.86.63-1.38.15.07-.06.13a.42.42 0 0 1 .18-.06c.06 0 .12 0 .18.04.09.04.15.1.2.17.04.07.06.16.06.25 0 .1-.03.2-.07.29-.05.1-.1.18-.18.25a.46.46 0 0 1-.5.07.35.35 0 0 1-.13-.1.38.38 0 0 1-.07-.14l-.23.48-.17-.07zm.55-.8c-.06.12-.08.23-.05.31.02.09.07.15.14.18.08.04.16.03.24 0 .08-.04.16-.13.22-.26s.07-.24.05-.33a.26.26 0 0 0-.14-.18c-.08-.03-.15-.03-.24.02-.09.04-.16.12-.22.25zm1.52.9.16.1a.47.47 0 0 1-.26.17.5.5 0 0 1-.32-.05.5.5 0 0 1-.29-.3.58.58 0 0 1 .05-.43.6.6 0 0 1 .3-.33.48.48 0 0 1 .4.02c.14.06.23.15.27.28a.6.6 0 0 1-.05.44c0 .01 0 .03-.02.05l-.74-.34a.42.42 0 0 0-.02.29.3.3 0 0 0 .16.18c.07.03.13.04.18.03a.35.35 0 0 0 .18-.11zm-.43-.53.56.26a.37.37 0 0 0 .02-.22.29.29 0 0 0-.16-.2.3.3 0 0 0-.23 0 .34.34 0 0 0-.19.16zm.58.99.06-.14.97-.44a3.96 3.96 0 0 1-.19-.08l-.4-.19.06-.13.81.37-.05.11-.83.39-.16.07.22.09.46.2-.07.15-.88-.4zM64.63 211.88l.63-1.38.48.22.23.13c.07.06.13.12.16.2.04.1.06.2.05.3a1 1 0 0 1-.1.36c-.04.1-.1.19-.16.26a.73.73 0 0 1-.18.16.54.54 0 0 1-.19.06.56.56 0 0 1-.2 0 1.03 1.03 0 0 1-.22-.08l-.5-.23zm.26-.08.29.14c.09.04.17.06.22.07l.16-.01a.47.47 0 0 0 .18-.13.94.94 0 0 0 .16-.25.7.7 0 0 0 .08-.37.4.4 0 0 0-.1-.23.78.78 0 0 0-.22-.14l-.29-.13-.48 1.05zm1.81.89a.58.58 0 0 1-.43-.02c-.11-.06-.18-.12-.22-.2a.3.3 0 0 1 .01-.25.3.3 0 0 1 .23-.18h.14l.17.05c.14.05.25.07.32.08l.02-.04c.04-.07.04-.13.02-.17-.02-.06-.08-.1-.16-.15-.08-.03-.15-.05-.2-.04-.05.01-.1.05-.15.11l-.15-.1c.04-.06.1-.1.15-.13a.36.36 0 0 1 .2-.03c.07 0 .15.02.24.06.08.04.15.09.19.13a.3.3 0 0 1 .08.13.3.3 0 0 1 0 .14c0 .03-.03.08-.06.16l-.1.22-.13.3a.41.41 0 0 0-.01.15l-.18-.09c0-.04 0-.08.02-.13zm.16-.39c-.07 0-.17-.02-.3-.06a.7.7 0 0 0-.17-.03.16.16 0 0 0-.15.09.16.16 0 0 0 0 .13c.02.05.06.09.13.12s.13.04.2.04a.3.3 0 0 0 .16-.07.45.45 0 0 0 .1-.16l.03-.06zm.64.72-.04.16a.7.7 0 0 1-.14-.04.32.32 0 0 1-.12-.1.18.18 0 0 1-.04-.1c0-.04.02-.11.07-.22l.26-.57-.12-.06.06-.13.13.06.1-.25.22-.02-.16.35.17.08-.06.13-.17-.08-.27.58a.34.34 0 0 0-.03.1l.01.04c.01.02.03.03.06.04a.6.6 0 0 0 .07.03zm.27-.3c.08-.18.2-.3.34-.34a.51.51 0 0 1 .36.03.5.5 0 0 1 .28.3c.04.12.03.27-.04.43a.73.73 0 0 1-.2.27.45.45 0 0 1-.25.1.54.54 0 0 1-.27-.05.5.5 0 0 1-.27-.3c-.05-.12-.03-.27.05-.44zm.17.08c-.06.13-.08.24-.05.33a.3.3 0 0 0 .17.19.3.3 0 0 0 .25 0c.09-.04.16-.12.22-.25s.07-.23.04-.32a.3.3 0 0 0-.16-.2.3.3 0 0 0-.26 0c-.08.04-.15.12-.21.25zm.8.61.18.05a.26.26 0 0 0 0 .2c.03.05.08.1.16.13s.14.05.2.03a.16.16 0 0 0 .1-.08.11.11 0 0 0 0-.12.8.8 0 0 0-.15-.13l-.22-.2a.27.27 0 0 1-.04-.3.3.3 0 0 1 .21-.17h.13l.16.05c.07.04.14.08.19.13.04.05.07.1.08.15a.4.4 0 0 1 0 .18l-.18-.05a.2.2 0 0 0-.01-.15.26.26 0 0 0-.14-.11c-.07-.04-.14-.05-.18-.04-.05 0-.08.03-.1.07a.1.1 0 0 0 0 .06c0 .03.02.05.05.08l.13.11c.1.09.17.15.2.2.05.04.07.08.08.14 0 .05 0 .1-.03.16a.31.31 0 0 1-.12.13.35.35 0 0 1-.2.05.57.57 0 0 1-.22-.05.52.52 0 0 1-.26-.22.41.41 0 0 1-.02-.3zm1.45 1.03.63-1.38.52.24.2.11c.06.04.11.1.14.14.03.06.05.12.05.19s-.01.14-.04.2a.47.47 0 0 1-.25.25c-.11.05-.27.03-.46-.06l-.36-.17-.25.56-.18-.08zm.51-.64.36.17c.11.05.2.07.28.05a.26.26 0 0 0 .16-.16.27.27 0 0 0 .02-.16.22.22 0 0 0-.08-.14.87.87 0 0 0-.16-.09l-.35-.16-.23.5zm1.58 1.21.16.1a.47.47 0 0 1-.26.17.5.5 0 0 1-.33-.04.5.5 0 0 1-.28-.3.58.58 0 0 1 .05-.44.6.6 0 0 1 .3-.33.48.48 0 0 1 .4.02c.14.06.23.16.27.29a.6.6 0 0 1-.05.44l-.02.04-.75-.34a.42.42 0 0 0-.02.3.3.3 0 0 0 .17.18c.06.03.12.03.18.02a.35.35 0 0 0 .18-.1zm-.43-.53.55.26a.37.37 0 0 0 .03-.22.29.29 0 0 0-.17-.2.3.3 0 0 0-.23 0 .34.34 0 0 0-.18.16zm.66 1.03.46-1 .15.07-.07.16a.45.45 0 0 1 .18-.1.2.2 0 0 1 .12.02c.06.03.1.07.15.14l-.13.13a.26.26 0 0 0-.1-.1.18.18 0 0 0-.12-.01.2.2 0 0 0-.1.06.72.72 0 0 0-.13.19l-.24.52-.17-.08zm.71-.03.18.05a.26.26 0 0 0 .01.19c.03.05.08.1.16.14.07.03.14.04.2.03a.16.16 0 0 0 .1-.09.11.11 0 0 0-.01-.11.8.8 0 0 0-.15-.14c-.1-.09-.18-.15-.22-.2a.27.27 0 0 1-.04-.3.3.3 0 0 1 .21-.17.4.4 0 0 1 .14.01c.05 0 .1.03.15.05.08.03.14.08.2.13.04.05.07.1.08.15a.4.4 0 0 1-.01.18l-.18-.05a.2.2 0 0 0 0-.15.26.26 0 0 0-.14-.12c-.08-.03-.14-.04-.18-.03-.05 0-.08.03-.1.06a.1.1 0 0 0 0 .07c0 .03.02.05.04.08l.13.1.22.2.07.14c0 .05 0 .1-.03.17a.31.31 0 0 1-.12.13.35.35 0 0 1-.2.05.57.57 0 0 1-.23-.05.52.52 0 0 1-.26-.22.41.41 0 0 1-.01-.3zm1.06.24c.09-.18.2-.3.35-.34a.51.51 0 0 1 .36.04.5.5 0 0 1 .27.29c.05.13.04.27-.04.43a.73.73 0 0 1-.2.28.45.45 0 0 1-.24.09.54.54 0 0 1-.27-.05.5.5 0 0 1-.28-.3c-.04-.12-.02-.27.05-.44zm.18.08c-.06.13-.08.24-.05.33a.3.3 0 0 0 .16.19.3.3 0 0 0 .26 0c.08-.04.16-.12.22-.25.05-.13.07-.23.04-.32a.3.3 0 0 0-.16-.2.3.3 0 0 0-.26 0c-.08.04-.15.13-.21.25zm.73.94.46-1 .15.08-.07.14a.4.4 0 0 1 .4-.02l.15.1c.04.05.06.1.07.15v.14l-.07.17-.28.62-.17-.08.28-.6a.5.5 0 0 0 .05-.17l-.03-.12a.24.24 0 0 0-.1-.08.3.3 0 0 0-.23-.02c-.07.02-.14.1-.2.23l-.25.54-.16-.08zm1.77.67a.58.58 0 0 1-.43-.02c-.11-.05-.18-.12-.22-.2a.3.3 0 0 1 0-.24.3.3 0 0 1 .23-.18h.15c.04 0 .1.02.16.05l.33.08.02-.05c.04-.07.04-.12.02-.17-.02-.05-.08-.1-.16-.14-.08-.04-.15-.05-.2-.04-.05.01-.1.05-.15.1l-.15-.09c.04-.06.1-.11.15-.14a.36.36 0 0 1 .2-.03c.07 0 .15.03.24.07.08.04.15.08.19.13a.3.3 0 0 1 .08.13.3.3 0 0 1 0 .13c0 .04-.03.09-.06.16l-.1.23-.13.3a.41.41 0 0 0-.01.14l-.18-.08c0-.04 0-.09.02-.14zm.16-.38c-.07 0-.17-.03-.3-.06a.7.7 0 0 0-.17-.04.16.16 0 0 0-.15.1.16.16 0 0 0 0 .13c.02.05.06.08.13.11.06.03.13.05.2.04a.3.3 0 0 0 .16-.06.45.45 0 0 0 .1-.16l.03-.06zm.2.7.63-1.38.17.08-.63 1.37-.17-.07zm1.26.19.17.1a.47.47 0 0 1-.27.17.5.5 0 0 1-.32-.05.5.5 0 0 1-.29-.3.58.58 0 0 1 .05-.43.6.6 0 0 1 .31-.33.48.48 0 0 1 .4.01c.13.07.22.16.26.29a.6.6 0 0 1-.05.44c0 .01 0 .03-.02.05l-.74-.35a.42.42 0 0 0-.02.3.3.3 0 0 0 .16.18c.07.03.13.04.19.03a.35.35 0 0 0 .17-.11zm-.43-.53.56.26a.37.37 0 0 0 .02-.22.29.29 0 0 0-.16-.2.3.3 0 0 0-.23 0 .34.34 0 0 0-.19.16zm.74.7.18.05a.26.26 0 0 0 0 .19c.03.05.08.1.16.14.08.03.14.04.2.03a.16.16 0 0 0 .1-.09.11.11 0 0 0 0-.11.81.81 0 0 0-.15-.14c-.11-.09-.18-.15-.22-.2a.27.27 0 0 1 .05-.4.3.3 0 0 1 .12-.06h.13c.05 0 .1.02.16.05.08.03.14.08.19.13.05.05.08.1.09.15a.4.4 0 0 1-.02.18l-.17-.05a.2.2 0 0 0-.01-.15.26.26 0 0 0-.13-.12c-.08-.03-.14-.05-.19-.03-.04 0-.07.03-.09.06a.1.1 0 0 0 0 .07c0 .03.01.05.04.08l.13.1.21.2c.04.04.06.09.07.14.01.05 0 .1-.02.16a.31.31 0 0 1-.13.14.35.35 0 0 1-.2.05.57.57 0 0 1-.22-.06.52.52 0 0 1-.26-.21.41.41 0 0 1-.02-.3zm-16.23-1.91.63-1.38.18.09-.26.56.72.33.26-.56.18.08-.63 1.38-.19-.09.3-.65-.71-.33-.3.65-.18-.08zm1.9-.56.1-.2.16.09-.09.2-.17-.09zm-.54 1.19.46-1 .17.08-.46 1-.17-.08zm.5-.14.17.05a.26.26 0 0 0 .01.2c.03.05.08.1.16.13.07.04.14.05.19.03a.16.16 0 0 0 .1-.08.11.11 0 0 0 0-.12.8.8 0 0 0-.15-.13l-.22-.2a.27.27 0 0 1-.04-.3.3.3 0 0 1 .21-.17.4.4 0 0 1 .14 0l.15.05c.08.04.14.08.2.13.04.05.07.1.08.15a.4.4 0 0 1-.01.18l-.18-.05a.2.2 0 0 0 0-.15.26.26 0 0 0-.14-.11c-.08-.04-.14-.05-.18-.04-.05.01-.08.03-.1.07a.1.1 0 0 0 0 .07l.04.07.13.11c.1.09.18.15.22.2.03.04.06.08.07.14 0 .05 0 .1-.03.16a.31.31 0 0 1-.12.14.35.35 0 0 1-.2.05.57.57 0 0 1-.23-.06.52.52 0 0 1-.26-.22.41.41 0 0 1-.02-.3zm1.32.8-.04.15a.7.7 0 0 1-.13-.04.32.32 0 0 1-.13-.1.18.18 0 0 1-.04-.1c0-.04.02-.11.07-.21l.27-.58-.13-.05.06-.14.13.06.11-.25.21-.02-.16.35.17.08-.06.13-.17-.08-.26.58a.33.33 0 0 0-.04.1l.01.05.06.04a.6.6 0 0 0 .07.02zm.27-.3c.08-.2.2-.3.34-.35a.51.51 0 0 1 .36.04.5.5 0 0 1 .28.29c.04.13.03.27-.04.43a.72.72 0 0 1-.2.28.45.45 0 0 1-.25.09.54.54 0 0 1-.27-.05.5.5 0 0 1-.27-.3c-.05-.12-.03-.27.05-.44zm.17.07c-.06.13-.07.24-.05.33a.3.3 0 0 0 .17.19.3.3 0 0 0 .25 0c.09-.04.16-.12.22-.25s.07-.23.04-.32a.3.3 0 0 0-.16-.2.3.3 0 0 0-.25 0c-.09.04-.16.13-.22.25zm.73.94.46-1 .15.08-.07.15a.45.45 0 0 1 .17-.1.2.2 0 0 1 .12.02c.06.03.11.07.15.14l-.13.13a.26.26 0 0 0-.1-.1.18.18 0 0 0-.12-.01.2.2 0 0 0-.1.06.72.72 0 0 0-.12.19l-.24.52-.17-.08zm1.18-.88.1-.2.16.08-.09.2-.17-.08zm-.54 1.18.46-1 .17.08-.46 1-.17-.08zm1.13.37a.58.58 0 0 1-.43-.02c-.11-.05-.18-.12-.22-.2a.3.3 0 0 1 .01-.24.3.3 0 0 1 .23-.18h.14l.17.04c.14.05.25.08.32.09l.03-.05c.03-.07.03-.12.01-.17-.02-.05-.08-.1-.16-.14-.08-.04-.15-.05-.2-.04-.05 0-.1.05-.15.1l-.15-.1c.04-.05.1-.1.15-.13.05-.03.12-.04.2-.03a.8.8 0 0 1 .43.2.3.3 0 0 1 .08.12.3.3 0 0 1 0 .14c0 .04-.03.09-.06.16l-.1.23-.13.3a.41.41 0 0 0-.01.14l-.18-.08c0-.04 0-.09.02-.14zm.16-.38c-.07 0-.17-.03-.3-.07a.7.7 0 0 0-.17-.03c-.03 0-.06 0-.09.02a.16.16 0 0 0-.06.07.16.16 0 0 0 0 .14c.02.05.06.08.13.11s.13.05.2.04.11-.03.16-.06a.45.45 0 0 0 .1-.16l.03-.06zm.2.7.64-1.38.16.08-.63 1.37-.17-.07zm2.2.42.15.13a.68.68 0 0 1-.36.25.63.63 0 0 1-.42-.05.72.72 0 0 1-.32-.26.62.62 0 0 1-.09-.36 1.04 1.04 0 0 1 .35-.74c.1-.08.22-.13.35-.14.12 0 .25.02.37.08.14.06.24.15.3.26a.6.6 0 0 1 .06.39l-.2-.04c.01-.12 0-.21-.04-.29a.4.4 0 0 0-.2-.17.49.49 0 0 0-.3-.05.44.44 0 0 0-.24.14.9.9 0 0 0-.16.24.93.93 0 0 0-.1.33c0 .1.02.2.07.27.06.08.12.14.2.17.11.05.21.06.3.04a.5.5 0 0 0 .27-.2zm.15.66.64-1.38.16.08-.63 1.38-.17-.08zm.5.22.45-1 .17.08-.46 1-.17-.08zm.5-1.12.24-.2.23.1-.33.16-.14-.06zm-.03 1.34.46-1 .15.08-.07.14a.4.4 0 0 1 .4-.02l.15.1c.04.05.06.1.07.14v.15l-.07.17-.28.62-.17-.08.28-.6a.5.5 0 0 0 .05-.17l-.03-.12a.24.24 0 0 0-.1-.08.3.3 0 0 0-.23-.02c-.07.02-.14.1-.2.23l-.24.54-.17-.08zm1.61-.69.09-.2.17.09-.09.2-.17-.09zm-.54 1.19.46-1 .16.08-.45 1-.17-.08zm1.24.13.16.1a.47.47 0 0 1-.27.2.45.45 0 0 1-.32-.03.47.47 0 0 1-.26-.29c-.05-.12-.03-.27.05-.44.05-.1.1-.2.18-.26.08-.06.16-.1.25-.1s.18 0 .26.05c.11.05.19.12.23.2.05.09.05.19.03.3l-.18-.05a.3.3 0 0 0-.01-.2.24.24 0 0 0-.12-.11.29.29 0 0 0-.25 0c-.08.03-.15.12-.22.25-.06.13-.08.24-.05.33.02.08.07.14.16.18.06.03.13.03.19.01s.12-.06.17-.14zm.31-.02c.09-.19.2-.3.34-.34a.51.51 0 0 1 .37.03.5.5 0 0 1 .27.3c.05.12.03.26-.04.42a.72.72 0 0 1-.2.28.45.45 0 0 1-.24.1.54.54 0 0 1-.27-.06.5.5 0 0 1-.28-.29c-.04-.13-.03-.27.05-.44zm.17.08c-.05.12-.07.23-.04.32a.3.3 0 0 0 .16.2.3.3 0 0 0 .26 0c.08-.04.15-.13.21-.26.06-.12.08-.23.05-.32a.3.3 0 0 0-.17-.19.3.3 0 0 0-.25 0c-.09.04-.16.12-.22.25zm-13.2-3.85.1-.2.19.1-.1.19-.18-.09zm-.36.8.09-.19.19.1-.1.18-.18-.09z" class="fil7"/><path d="M66.3 231.85c2.42-1.2 5.82.55 8.2 4h.02c.72-.37 2.22 1.16 3.34 3.4 1.11 2.25 1.43 4.36.7 4.72-.35.18-.9-.1-1.49-.7.08 2.5-.75 4.54-2.42 5.37-2.82 1.4-6.99-1.21-9.3-5.85-2.3-4.63-1.88-9.53.94-10.94zM120.93 232.4c-2.42-1.2-5.83.55-8.2 4h-.03c-.72-.37-2.22 1.16-3.33 3.4-1.12 2.25-1.44 4.36-.72 4.72.36.18.9-.1 1.5-.7-.07 2.5.75 4.54 2.42 5.37 2.83 1.4 6.99-1.21 9.3-5.85 2.3-4.63 1.88-9.53-.94-10.94z" class="fil8 str0"/><path d="M46.08 211.21a8.05 8.05 0 0 1-1.33-7.56c8.72-23.65 22.14-40.38 37.99-53.5 4.63 5.7 2.7 15.5-7.53 24.89l-4.1 13.6-7.88 17.04 13.46 28.44c-2.48 5.95-14 7.7-17.59 4.57L46.08 211.2zM142.92 216.59a8.05 8.05 0 0 0 2.42-7.28c-5.17-24.68-16-43.18-29.76-58.49-5.42 4.96-4.93 14.95 3.8 25.72l2.08 14.07 5.3 18-17.47 26.16c1.57 6.26 12.71 9.68 16.73 7.1l16.9-25.28z" class="fil1 str0"/><path d="m96.91 192.79 1.95-2.77-1.8-2.56h1.13l.81 1.25c.16.24.28.43.37.6l.41-.6.9-1.25h1.08l-1.84 2.5 1.98 2.83h-1.1l-1.1-1.66-.3-.44-1.4 2.1h-1.09z" class="fil9"/><path d="M99.37 201.34a3.96 3.96 0 1 1 0 7.91 3.96 3.96 0 0 1 0-7.91zM99.37 216.51a3.96 3.96 0 1 1 0 7.91 3.96 3.96 0 0 1 0-7.91z" class="fil3 str0"/><path d="m96.91 207.96 1.95-2.77-1.8-2.56h1.13l.81 1.25c.16.24.28.43.37.6l.41-.6.9-1.25h1.08l-1.84 2.5 1.98 2.83h-1.1l-1.1-1.66-.3-.44-1.4 2.1h-1.09zM96.91 223.13l1.95-2.77-1.8-2.56h1.13l.81 1.25c.16.24.28.43.37.6l.41-.6.9-1.25h1.08l-1.84 2.5 1.98 2.83h-1.1l-1.1-1.66-.3-.44-1.4 2.1h-1.09z" class="fil9"/><path d="M82.78 158.55c1.22-4.37 3.48-8.43 7.07-11.3a16.58 16.58 0 0 1 21.71.74c3.28 2.99 5.25 7 6.1 11.33l.02.14.13 9.9a7.25 7.25 0 1 1-3.18-.13l-.12-9.44a17.16 17.16 0 0 0-5.08-9.45 13.4 13.4 0 0 0-17.6-.61c-2.86 2.29-4.7 5.5-5.79 8.96 6.33 1.05 10.62 6.2 9.53 12.8l.14 18.45-3.17.03-.15-18.73.03-.14c.45-2.6-.1-5.06-2.04-6.92a9.3 9.3 0 0 0-5.13-2.4l-.06.24-1.43-.34c-1.36.01-2.73.3-3.94.9-3.28 1.62-4.37 4.95-4.18 8.42v.03l.32 18.9-3.17.05-.32-18.83c-.26-4.76 1.5-9.22 5.94-11.42a12 12 0 0 1 4.37-1.18z" class="fil10 str0"/><path d="M115.88 171.85a4.8 4.8 0 1 1 0 9.62 4.8 4.8 0 0 1 0-9.62z" class="str0" style="fill:#dededd"/><path d="M115.88 173.44a3.22 3.22 0 1 1 0 6.44 3.22 3.22 0 0 1 0-6.44z" class="fil10 str0"/><path d="M71.61 184.1h5.42v5.89h-5.42zM91.46 184.3h5.43v5.88h-5.43z" class="fil12 str0"/><path d="M72.58 171.02h3.49v13.08h-3.49zM92.43 171.21h3.49v13.09h-3.49z" class="fil13 str0"/><path d="M135.63 99.98a7.18 7.18 0 1 1-.7 14.32 36.39 36.39 0 0 1-28.46 28.49l-.05 7.48-7.15 12.7-6.88-12.42-.28-7.76a36.39 36.39 0 0 1-28.45-28.49 7.18 7.18 0 1 1 0-14.29 36.22 36.22 0 0 1 8.43-16.94l-2.86 8.72 14.05 1.17 4.54-9.37-.3 9.66 14.94-1.46-1.9-13.18 7.32 14.64 16.55-1.76-6.45-12.15 9.96 11.57 3.6-.5c1.56 2.99 2.7 6.21 3.39 9.6.23-.02.46-.03.7-.03z" class="fil8"/><path d="M117.73 100.38c5.36-.67 10.68-1.6 15.95-2.78l1.09-.24.48 2.17-1.08.24c-2.92.65-5.86 1.23-8.8 1.73.14.34.23.71.23 1.1v16.03c0 1.47-1.2 2.66-2.66 2.66h-18.59a2.65 2.65 0 0 1-2.65-2.67l.15-14.47.02-.32c-2.08.07-4.17.09-6.25.07.06.23.1.46.1.7v14.14c0 1.46-1.2 2.66-2.66 2.66H74.47a2.66 2.66 0 0 1-2.65-2.66V102.7c0-.19.02-.38.06-.56-2.6-.37-5.18-.79-7.76-1.26l-1.09-.2.4-2.18 1.1.2c3.03.55 6.08 1.03 9.15 1.44.29-.09.6-.12.9-.09l14 1.44c5.29.25 10.59.26 15.88.02l13.27-1.13z" class="fil10 str0"/><path d="M64.33 99.78c3.2.59 6.35 1.08 9.48 1.5m14.7 1.31c5.44.26 10.78.26 16.02.03m13.32-1.14c5.46-.68 10.82-1.62 16.08-2.8m-29.42 3.94h.02l13.32-1.14 5.1-.43c.84-.08 1.54.7 1.54 1.54v16.04c0 .85-.7 1.54-1.54 1.54h-18.6c-.84 0-1.54-.7-1.53-1.54l.15-14.47c0-.85.7-1.47 1.54-1.54zm-30.04-1.47 14.03 1.44 4.56.47c.85.08 1.54.7 1.54 1.54v14.14c0 .84-.69 1.54-1.54 1.54H74.47c-.85 0-1.54-.7-1.54-1.54V102.7c0-.61.36-1.19.88-1.43.2-.1.42-.14.66-.12z" class="str0" style="fill:#fad9c4"/><path d="M82.55 106.9a3.66 3.66 0 1 1 0 7.32 3.66 3.66 0 0 1 0-7.32zM113.15 106.61a3.66 3.66 0 1 1 0 7.32 3.66 3.66 0 0 1 0-7.32z" class="fil10 str0"/><path d="M108.88 127.46c-.35 4.97-4.86 8.9-10.38 8.9-5.33 0-9.72-3.67-10.33-8.4 2.13 2.94 5.9 4.89 10.18 4.89 4.54 0 8.49-2.18 10.53-5.39z" style="fill:#da251d"/><path d="M99.1 133.84c1.57 0 2.97.62 3.88 1.6a11.16 11.16 0 0 1-8.07.34 5.23 5.23 0 0 1 4.19-1.94z" style="fill:#ef9ba0"/><path d="M96.01 121.92c.7-1.14 1.63-2.28 2.54-2.2.89.07 1.75 1.32 2.2 2.75" class="fil6 str0"/><path d="M108.65 244.52c5.49 2.03 10.52-.6 15.92 0l-.14 8.26h-15.64l-.14-8.26z" class="fil1 str0"/></svg>