<?xml version="1.0" encoding="UTF-8"?>
<!DOCTYPE svg PUBLIC "-//W3C//DTD SVG 1.1//EN" "http://www.w3.org/Graphics/SVG/1.1/DTD/svg11.dtd">
<svg xmlns="http://www.w3.org/2000/svg" version="1.1" width="350px" height="350px" style="shape-rendering:geometricPrecision; text-rendering:geometricPrecision; image-rendering:optimizeQuality; fill-rule:evenodd; clip-rule:evenodd" xmlns:xlink="http://www.w3.org/1999/xlink">
<g><path style="opacity:0.952" fill="#60b57f" d="M 224.5,9.5 C 223.761,9.36899 223.094,9.53566 222.5,10C 225.693,11.0255 227.026,13.1922 226.5,16.5C 214.115,14.9346 201.782,13.268 189.5,11.5C 173.748,10.9518 158.081,11.7851 142.5,14C 131.733,17.0248 121.067,20.3581 110.5,24C 91.1272,32.1105 73.9605,43.6105 59,58.5C 57.3558,62.6436 54.5225,65.6436 50.5,67.5C 35.9016,85.2873 25.4016,105.287 19,127.5C 15.6577,130.131 11.8244,131.464 7.5,131.5C 11.8863,112.318 19.553,94.6515 30.5,78.5C 31.8804,79.7065 33.0471,79.3731 34,77.5C 50.5429,55.1211 70.7095,36.7878 94.5,22.5C 95.2975,22.0431 95.6309,21.3764 95.5,20.5C 112.066,10.7033 130.066,5.2033 149.5,4C 174.999,1.06307 199.999,2.8964 224.5,9.5 Z"/></g>
<g><path style="opacity:0.997" fill="#d6f2da" d="M 189.5,11.5 C 200.405,13.8066 211.405,16.3066 222.5,19C 232.814,23.4892 243.148,27.9892 253.5,32.5C 273.049,43.8703 289.716,58.7036 303.5,77C 307.203,77.5787 310.869,77.412 314.5,76.5C 316.664,78.822 318.331,81.4887 319.5,84.5C 318.584,84.9817 317.584,85.315 316.5,85.5C 286.369,80.3191 256.703,82.1525 227.5,91C 209.176,97.4061 193.676,107.906 181,122.5C 171.996,133.845 163.996,145.845 157,158.5C 156.333,159.833 156.333,161.167 157,162.5C 166.693,175.551 174.026,189.885 179,205.5C 180.062,206.899 181.395,207.899 183,208.5C 191.379,201.119 198.712,192.786 205,183.5C 204.601,169.512 204.601,155.512 205,141.5C 205.522,136.6 206.855,131.934 209,127.5C 210.012,140.823 210.846,154.156 211.5,167.5C 211.392,170.183 212.559,171.85 215,172.5C 225.822,163.013 236.655,153.513 247.5,144C 257.667,136.747 268.333,130.247 279.5,124.5C 280.696,124.846 280.696,125.346 279.5,126C 260.546,139.273 243.046,154.439 227,171.5C 225.667,173.5 224.333,175.5 223,177.5C 222.28,179.112 222.446,180.612 223.5,182C 233.494,182.5 243.494,182.666 253.5,182.5C 257.702,182.183 261.702,182.517 265.5,183.5C 259.208,186.614 252.542,188.78 245.5,190C 233.833,190.333 222.167,190.667 210.5,191C 200.524,201.304 191.691,212.471 184,224.5C 183.464,226.567 183.964,228.401 185.5,230C 198.566,230.701 211.566,230.367 224.5,229C 212.215,234.925 199.215,237.758 185.5,237.5C 182.076,245.958 181.242,254.624 183,263.5C 185.041,265.974 187.708,266.974 191,266.5C 244.867,262.599 282.2,235.933 303,186.5C 310.743,164.604 318.077,142.604 325,120.5C 326.667,117.167 328.333,113.833 330,110.5C 330.671,109.748 331.504,109.414 332.5,109.5C 332.878,111.921 333.545,114.254 334.5,116.5C 334.5,116.833 334.5,117.167 334.5,117.5C 331.067,119.009 329.067,121.675 328.5,125.5C 330.348,132.407 331.681,139.407 332.5,146.5C 337.623,184.708 331.123,220.708 313,254.5C 309.389,260.444 305.389,266.111 301,271.5C 300.494,275.189 301.994,277.856 305.5,279.5C 293.955,294.717 279.955,307.05 263.5,316.5C 262.128,314.132 260.128,312.465 257.5,311.5C 249.821,314.326 242.655,317.993 236,322.5C 221.096,327.017 205.929,330.517 190.5,333C 178.49,333.54 166.49,333.373 154.5,332.5C 147.342,331.918 140.342,330.585 133.5,328.5C 109.998,322.749 88.9977,312.249 70.5,297C 63.9648,290.297 57.2982,283.797 50.5,277.5C 33.0049,254.546 21.1715,228.88 15,200.5C 14.163,193.351 13.3297,186.351 12.5,179.5C 11.4392,174.898 8.77256,173.232 4.5,174.5C 4.50204,168.477 4.83537,162.477 5.5,156.5C 8.22261,159.586 10.7226,162.92 13,166.5C 24.2499,190.004 36.2499,213.004 49,235.5C 58.9467,247.111 70.4467,256.944 83.5,265C 111.361,275.935 139.361,276.268 167.5,266C 168.059,265.275 168.392,264.442 168.5,263.5C 164.07,258.568 159.404,253.735 154.5,249C 145.815,248.882 137.149,249.382 128.5,250.5C 122.178,250.669 116.178,249.502 110.5,247C 121.61,247.039 132.61,246.039 143.5,244C 144.574,243.261 145.241,242.261 145.5,241C 136.658,231.659 127.325,222.825 117.5,214.5C 115.833,214.167 114.167,213.833 112.5,213.5C 104.115,214.283 95.7817,215.283 87.5,216.5C 81.7174,216.471 76.0507,215.638 70.5,214C 82.2178,212.742 93.7178,210.576 105,207.5C 105.458,204.904 104.625,202.737 102.5,201C 90.7829,191.615 78.7829,182.615 66.5,174C 61.6587,171.079 56.6587,168.412 51.5,166C 50.3044,165.346 50.3044,164.846 51.5,164.5C 59.8756,168.237 68.209,172.07 76.5,176C 88.545,183.016 100.212,190.516 111.5,198.5C 112.442,198.392 113.275,198.059 114,197.5C 115.02,184.644 114.353,171.977 112,159.5C 115.693,164.903 118.027,170.903 119,177.5C 119.706,187.581 120.706,197.581 122,207.5C 131.678,215.847 141.345,224.18 151,232.5C 151.772,232.355 152.439,232.022 153,231.5C 153.384,220.696 152.717,210.03 151,199.5C 157.497,211.987 160.164,225.32 159,239.5C 162.12,244.954 166.287,249.454 171.5,253C 173.367,253.711 174.867,253.211 176,251.5C 178.463,194.871 153.629,156.037 101.5,135C 69.7347,126.207 38.4014,127.707 7.5,139.5C 7.5,136.833 7.5,134.167 7.5,131.5C 11.8244,131.464 15.6577,130.131 19,127.5C 25.4016,105.287 35.9016,85.2873 50.5,67.5C 54.5225,65.6436 57.3558,62.6436 59,58.5C 73.9605,43.6105 91.1272,32.1105 110.5,24C 121.067,20.3581 131.733,17.0248 142.5,14C 158.081,11.7851 173.748,10.9518 189.5,11.5 Z"/></g>
<g><path style="opacity:1" fill="#6ebc8a" d="M 224.5,9.5 C 231.013,11.0871 237.346,13.2538 243.5,16C 248.554,19.1939 253.888,21.8606 259.5,24C 264.772,26.7909 269.438,30.2909 273.5,34.5C 271.049,33.5892 268.715,32.7559 266.5,32C 269.692,34.862 272.859,37.6953 276,40.5C 277.543,42.0894 277.543,43.4228 276,44.5C 270.581,41.9663 265.748,38.6329 261.5,34.5C 258.988,33.2054 256.321,32.5387 253.5,32.5C 243.148,27.9892 232.814,23.4892 222.5,19C 211.405,16.3066 200.405,13.8066 189.5,11.5C 201.782,13.268 214.115,14.9346 226.5,16.5C 227.026,13.1922 225.693,11.0255 222.5,10C 223.094,9.53566 223.761,9.36899 224.5,9.5 Z"/></g>
<g><path style="opacity:1" fill="#80e322" d="M 215.5,76.5 C 204.167,76.5 192.833,76.5 181.5,76.5C 181.5,87.1667 181.5,97.8333 181.5,108.5C 179.562,112.169 176.562,113.336 172.5,112C 170.859,110.871 169.859,109.371 169.5,107.5C 169.5,97.1667 169.5,86.8333 169.5,76.5C 158.833,76.5 148.167,76.5 137.5,76.5C 131.892,73.4787 131.225,69.812 135.5,65.5C 146.783,64.5433 158.116,64.21 169.5,64.5C 169.5,52.8333 169.5,41.1667 169.5,29.5C 173.457,24.3002 177.624,24.3002 182,29.5C 182.5,40.8284 182.667,52.1618 182.5,63.5C 193.505,63.3335 204.505,63.5002 215.5,64C 219.292,66.0527 220.458,69.2194 219,73.5C 217.961,74.7101 216.794,75.7101 215.5,76.5 Z"/></g>
<g><path style="opacity:0.828" fill="#79c293" d="M 273.5,34.5 C 277.202,36.0236 280.536,38.1903 283.5,41C 295.446,51.445 305.78,63.2784 314.5,76.5C 310.869,77.412 307.203,77.5787 303.5,77C 289.716,58.7036 273.049,43.8703 253.5,32.5C 256.321,32.5387 258.988,33.2054 261.5,34.5C 265.748,38.6329 270.581,41.9663 276,44.5C 277.543,43.4228 277.543,42.0894 276,40.5C 272.859,37.6953 269.692,34.862 266.5,32C 268.715,32.7559 271.049,33.5892 273.5,34.5 Z"/></g>
<g><path style="opacity:0.118" fill="#87c99d" d="M 95.5,20.5 C 95.6309,21.3764 95.2975,22.0431 94.5,22.5C 70.7095,36.7878 50.5429,55.1211 34,77.5C 33.0471,79.3731 31.8804,79.7065 30.5,78.5C 46.5261,52.8051 68.1928,33.4718 95.5,20.5 Z"/></g>
<g><path style="opacity:1" fill="#a8ea76" d="M 169.5,29.5 C 169.5,41.1667 169.5,52.8333 169.5,64.5C 158.116,64.21 146.783,64.5433 135.5,65.5C 135.611,64.8826 135.944,64.3826 136.5,64C 147.161,63.5002 157.828,63.3335 168.5,63.5C 168.172,51.9877 168.505,40.6544 169.5,29.5 Z"/></g>
<g><path style="opacity:1" fill="#b8ec99" d="M 137.5,76.5 C 148.167,76.5 158.833,76.5 169.5,76.5C 169.5,86.8333 169.5,97.1667 169.5,107.5C 168.506,97.6806 168.173,87.6806 168.5,77.5C 157.986,77.8276 147.653,77.4942 137.5,76.5 Z"/></g>
<g><path style="opacity:0.998" fill="#038a42" d="M 319.5,84.5 C 326.778,85.7782 333.945,87.4448 341,89.5C 341.667,91.8333 341.667,94.1667 341,96.5C 336.653,99.8654 333.82,104.199 332.5,109.5C 331.504,109.414 330.671,109.748 330,110.5C 328.333,113.833 326.667,117.167 325,120.5C 318.077,142.604 310.743,164.604 303,186.5C 282.2,235.933 244.867,262.599 191,266.5C 187.708,266.974 185.041,265.974 183,263.5C 181.242,254.624 182.076,245.958 185.5,237.5C 199.215,237.758 212.215,234.925 224.5,229C 211.566,230.367 198.566,230.701 185.5,230C 183.964,228.401 183.464,226.567 184,224.5C 191.691,212.471 200.524,201.304 210.5,191C 222.167,190.667 233.833,190.333 245.5,190C 252.542,188.78 259.208,186.614 265.5,183.5C 267.303,182.954 268.97,182.12 270.5,181C 264.68,180.972 259.014,181.472 253.5,182.5C 243.494,182.666 233.494,182.5 223.5,182C 222.446,180.612 222.28,179.112 223,177.5C 224.333,175.5 225.667,173.5 227,171.5C 243.046,154.439 260.546,139.273 279.5,126C 280.696,125.346 280.696,124.846 279.5,124.5C 268.333,130.247 257.667,136.747 247.5,144C 236.655,153.513 225.822,163.013 215,172.5C 212.559,171.85 211.392,170.183 211.5,167.5C 210.846,154.156 210.012,140.823 209,127.5C 206.855,131.934 205.522,136.6 205,141.5C 204.601,155.512 204.601,169.512 205,183.5C 198.712,192.786 191.379,201.119 183,208.5C 181.395,207.899 180.062,206.899 179,205.5C 174.026,189.885 166.693,175.551 157,162.5C 156.333,161.167 156.333,159.833 157,158.5C 163.996,145.845 171.996,133.845 181,122.5C 193.676,107.906 209.176,97.4061 227.5,91C 256.703,82.1525 286.369,80.3191 316.5,85.5C 317.584,85.315 318.584,84.9817 319.5,84.5 Z"/></g>
<g><path style="opacity:1" fill="#aaea7a" d="M 215.5,76.5 C 204.679,77.4946 193.679,77.8279 182.5,77.5C 182.828,88.0135 182.494,98.3468 181.5,108.5C 181.5,97.8333 181.5,87.1667 181.5,76.5C 192.833,76.5 204.167,76.5 215.5,76.5 Z"/></g>
<g><path style="opacity:1" fill="#90cda4" d="M 334.5,117.5 C 336.855,125.603 339.188,133.603 341.5,141.5C 341.5,143.5 341.5,145.5 341.5,147.5C 339.946,148.914 338.612,150.581 337.5,152.5C 336.833,152.167 336.167,151.833 335.5,151.5C 334.83,149.709 334.163,148.042 333.5,146.5C 333.167,146.5 332.833,146.5 332.5,146.5C 331.681,139.407 330.348,132.407 328.5,125.5C 329.067,121.675 331.067,119.009 334.5,117.5 Z"/></g>
<g><path style="opacity:0.035" fill="#3aa162" d="M 334.5,116.5 C 338.213,124.338 340.546,132.672 341.5,141.5C 339.188,133.603 336.855,125.603 334.5,117.5C 334.5,117.167 334.5,116.833 334.5,116.5 Z"/></g>
<g><path style="opacity:0.999" fill="#71e008" d="M 5.5,156.5 C 3.85325,153.527 1.85325,150.86 -0.5,148.5C -0.5,147.167 -0.5,145.833 -0.5,144.5C 1.83017,142.333 4.49683,140.666 7.5,139.5C 38.4014,127.707 69.7347,126.207 101.5,135C 153.629,156.037 178.463,194.871 176,251.5C 174.867,253.211 173.367,253.711 171.5,253C 166.287,249.454 162.12,244.954 159,239.5C 160.164,225.32 157.497,211.987 151,199.5C 152.717,210.03 153.384,220.696 153,231.5C 152.439,232.022 151.772,232.355 151,232.5C 141.345,224.18 131.678,215.847 122,207.5C 120.706,197.581 119.706,187.581 119,177.5C 118.027,170.903 115.693,164.903 112,159.5C 114.353,171.977 115.02,184.644 114,197.5C 113.275,198.059 112.442,198.392 111.5,198.5C 100.212,190.516 88.545,183.016 76.5,176C 68.209,172.07 59.8756,168.237 51.5,164.5C 50.3044,164.846 50.3044,165.346 51.5,166C 56.6587,168.412 61.6587,171.079 66.5,174C 78.7829,182.615 90.7829,191.615 102.5,201C 104.625,202.737 105.458,204.904 105,207.5C 93.7178,210.576 82.2178,212.742 70.5,214C 76.0507,215.638 81.7174,216.471 87.5,216.5C 95.7817,215.283 104.115,214.283 112.5,213.5C 114.167,213.833 115.833,214.167 117.5,214.5C 127.325,222.825 136.658,231.659 145.5,241C 145.241,242.261 144.574,243.261 143.5,244C 132.61,246.039 121.61,247.039 110.5,247C 116.178,249.502 122.178,250.669 128.5,250.5C 137.149,249.382 145.815,248.882 154.5,249C 159.404,253.735 164.07,258.568 168.5,263.5C 168.392,264.442 168.059,265.275 167.5,266C 139.361,276.268 111.361,275.935 83.5,265C 70.4467,256.944 58.9467,247.111 49,235.5C 36.2499,213.004 24.2499,190.004 13,166.5C 10.7226,162.92 8.22261,159.586 5.5,156.5 Z"/></g>
<g><path style="opacity:0.945" fill="#59b17a" d="M 12.5,179.5 C 12.334,184.844 12.5006,190.177 13,195.5C 14.8833,203.746 16.0499,212.079 16.5,220.5C 14.8561,220.714 13.3561,220.38 12,219.5C 11.0537,215.192 9.55373,211.192 7.5,207.5C 5.13533,196.645 4.13533,185.645 4.5,174.5C 8.77256,173.232 11.4392,174.898 12.5,179.5 Z"/></g>
<g><path style="opacity:1" fill="#94d1aa" d="M 265.5,183.5 C 261.702,182.517 257.702,182.183 253.5,182.5C 259.014,181.472 264.68,180.972 270.5,181C 268.97,182.12 267.303,182.954 265.5,183.5 Z"/></g>
<g><path style="opacity:1" fill="#a4d8b4" d="M 333.5,146.5 C 334.163,148.042 334.83,149.709 335.5,151.5C 336.167,151.833 336.833,152.167 337.5,152.5C 338.612,150.581 339.946,148.914 341.5,147.5C 341.5,165.5 341.5,183.5 341.5,201.5C 338.646,209.92 336.313,218.586 334.5,227.5C 334.5,227.833 334.5,228.167 334.5,228.5C 333.833,228.833 333.167,229.167 332.5,229.5C 333.435,226.887 333.602,224.221 333,221.5C 332.333,222.833 331.667,222.833 331,221.5C 330.077,219.966 329.577,218.299 329.5,216.5C 332.395,209.156 334.229,201.49 335,193.5C 336.007,177.742 335.507,162.076 333.5,146.5 Z"/></g>
<g><path style="opacity:0.012" fill="#39a060" d="M 341.5,201.5 C 341.019,210.765 338.686,219.431 334.5,227.5C 336.313,218.586 338.646,209.92 341.5,201.5 Z"/></g>
<g><path style="opacity:0.982" fill="#bbe3c5" d="M 332.5,146.5 C 332.833,146.5 333.167,146.5 333.5,146.5C 335.507,162.076 336.007,177.742 335,193.5C 334.229,201.49 332.395,209.156 329.5,216.5C 329.577,218.299 330.077,219.966 331,221.5C 331.667,222.833 332.333,222.833 333,221.5C 333.602,224.221 333.435,226.887 332.5,229.5C 329.633,236.769 326.966,244.102 324.5,251.5C 319.638,261.909 313.305,271.242 305.5,279.5C 301.994,277.856 300.494,275.189 301,271.5C 305.389,266.111 309.389,260.444 313,254.5C 331.123,220.708 337.623,184.708 332.5,146.5 Z"/></g>
<g><path style="opacity:1" fill="#76c091" d="M 12.5,179.5 C 13.3297,186.351 14.163,193.351 15,200.5C 21.1715,228.88 33.0049,254.546 50.5,277.5C 51.5114,279.372 52.3448,281.372 53,283.5C 59.9145,290.414 66.7478,297.248 73.5,304C 71.8807,304.236 70.8807,305.069 70.5,306.5C 55.4598,295.293 42.6264,281.96 32,266.5C 27.362,258.758 23.1953,250.758 19.5,242.5C 19.0431,241.702 18.3764,241.369 17.5,241.5C 14.5432,231.627 11.2099,221.961 7.5,212.5C 7.5,210.833 7.5,209.167 7.5,207.5C 9.55373,211.192 11.0537,215.192 12,219.5C 13.3561,220.38 14.8561,220.714 16.5,220.5C 16.0499,212.079 14.8833,203.746 13,195.5C 12.5006,190.177 12.334,184.844 12.5,179.5 Z"/></g>
<g><path style="opacity:0.149" fill="#3da264" d="M 7.5,212.5 C 11.2099,221.961 14.5432,231.627 17.5,241.5C 12.5991,232.467 9.2658,222.8 7.5,212.5 Z"/></g>
<g><path style="opacity:0.012" fill="#4eaa70" d="M 334.5,228.5 C 331.926,236.574 328.593,244.241 324.5,251.5C 326.966,244.102 329.633,236.769 332.5,229.5C 333.167,229.167 333.833,228.833 334.5,228.5 Z"/></g>
<g><path style="opacity:0.024" fill="#3ba162" d="M 17.5,241.5 C 18.3764,241.369 19.0431,241.702 19.5,242.5C 23.1953,250.758 27.362,258.758 32,266.5C 42.6264,281.96 55.4598,295.293 70.5,306.5C 94.9268,325.325 122.593,336.992 153.5,341.5C 137.123,340.656 121.456,336.822 106.5,330C 71.8365,314.667 44.6698,290.834 25,258.5C 22.4648,252.771 19.9648,247.104 17.5,241.5 Z"/></g>
<g><path style="opacity:0.039" fill="#80c597" d="M 263.5,316.5 C 254.376,323.062 244.376,328.062 233.5,331.5C 243.151,326.008 253.151,321.008 263.5,316.5 Z"/></g>
<g><path style="opacity:0.994" fill="#bbe4c6" d="M 263.5,316.5 C 253.151,321.008 243.151,326.008 233.5,331.5C 233.5,332.167 233.167,332.5 232.5,332.5C 232.265,331.903 231.765,331.57 231,331.5C 222.147,335.175 212.98,337.509 203.5,338.5C 201.143,338.663 198.81,338.497 196.5,338C 197.833,337 197.833,336 196.5,335C 189.169,334.721 181.836,334.888 174.5,335.5C 167.598,335.113 160.931,334.113 154.5,332.5C 166.49,333.373 178.49,333.54 190.5,333C 205.929,330.517 221.096,327.017 236,322.5C 242.655,317.993 249.821,314.326 257.5,311.5C 260.128,312.465 262.128,314.132 263.5,316.5 Z"/></g>
<g><path style="opacity:0.965" fill="#8dcca2" d="M 50.5,277.5 C 57.2982,283.797 63.9648,290.297 70.5,297C 88.9977,312.249 109.998,322.749 133.5,328.5C 134.343,330.173 135.676,331.34 137.5,332C 145.555,334.093 153.722,335.593 162,336.5C 162.5,336.833 163,337.167 163.5,337.5C 161.833,337.833 160.167,338.167 158.5,338.5C 154.502,337.808 150.502,337.641 146.5,338C 151.769,339.106 157.103,339.773 162.5,340C 161.584,340.278 160.918,340.778 160.5,341.5C 158.167,341.5 155.833,341.5 153.5,341.5C 122.593,336.992 94.9268,325.325 70.5,306.5C 70.8807,305.069 71.8807,304.236 73.5,304C 66.7478,297.248 59.9145,290.414 53,283.5C 52.3448,281.372 51.5114,279.372 50.5,277.5 Z"/></g>
<g><path style="opacity:0.998" fill="#a5d8b4" d="M 133.5,328.5 C 140.342,330.585 147.342,331.918 154.5,332.5C 160.931,334.113 167.598,335.113 174.5,335.5C 181.836,334.888 189.169,334.721 196.5,335C 197.833,336 197.833,337 196.5,338C 198.81,338.497 201.143,338.663 203.5,338.5C 200.113,339.288 196.78,340.288 193.5,341.5C 182.5,341.5 171.5,341.5 160.5,341.5C 160.918,340.778 161.584,340.278 162.5,340C 157.103,339.773 151.769,339.106 146.5,338C 150.502,337.641 154.502,337.808 158.5,338.5C 160.167,338.167 161.833,337.833 163.5,337.5C 163,337.167 162.5,336.833 162,336.5C 153.722,335.593 145.555,334.093 137.5,332C 135.676,331.34 134.343,330.173 133.5,328.5 Z"/></g>
<g><path style="opacity:0.013" fill="#3da263" d="M 232.5,332.5 C 220.063,337.859 207.063,340.859 193.5,341.5C 196.78,340.288 200.113,339.288 203.5,338.5C 212.98,337.509 222.147,335.175 231,331.5C 231.765,331.57 232.265,331.903 232.5,332.5 Z"/></g>
</svg>
