<svg xmlns="http://www.w3.org/2000/svg" viewBox="0 0 640 480"><path d="M201.94 214.23c48.8 1.66 96.2 6.06 142.95 20.9 39.66 12.58 90.66 61.32 37.1 94.57-76.46 47.47-190.28 52.7-276.44 32.1-29.09-6.96-60.34-13.98-84.57-32.67-25.83-19.92-30.35-54.6.92-72.93a274.05 274.05 0 0 1 86.4-32.77c30.47-6.07 64.65-2.63 93.64-9.2"/><path fill="#fff" d="M203.66 218.26c47.8 1.7 93.73 6.74 139.38 21.57 20.34 6.6 41.56 18.91 53.31 37 13.95 21.46-6.2 42-23.8 52.7-78.26 47.52-193.25 43.21-279.4 24.07-26.84-5.97-54.33-15.8-75.38-33.85-25.35-21.73-8-50.77 15.5-64.55 51.14-29.99 112.43-34.88 170.38-36.94"/><path d="M204.81 225.72c40.01.94 99.17 1.23 130.61 30.56 46.48 43.36-34.47 68.75-68.07 73.42-49.4 6.86-97.05 6-145.94-4.36-20.19-4.28-43.26-12.8-55.62-30.1-14.43-20.2 9.37-40.55 26.7-48.18 36.17-15.9 75.31-18.96 112.32-21.34"/><path fill="#ffdc73" d="M205.95 230.32c43.68 1.09 96.19 3.9 130.79 33.88 43.48 37.67-67.27 61.55-86.55 63.79-45.05 5.22-93.32 1.75-137-10.3-15.3-4.22-50.66-16.5-46.39-37.9 4.64-23.2 33.42-32.2 53.26-38.37 27.42-8.5 59.35-10.19 85.9-11.1"/><path d="m33.6 256.74 207.1 66.7c4.3 1.39 12.24 6.4 15.8 2.8l35.38-35.72 76.66-77.44C257.02 227.64 145.47 245.3 33.6 256.74"/><path d="m368.54 236.06-79.57 80.37-33.2 33.54c-2.96 2.98-18.83-4.76-22.38-5.9l-134.74-43.4-55.07-17.74c-14.5-4.67-9.64-9.74-8.82-25.62l206 66.17c4.31 1.38 12.19 6.36 15.75 2.77l35.37-35.73c25.55-25.81 51.1-51.63 76.67-77.44v22.98"/><path fill="#fffad9" d="m54.86 258.47 185.6 58.46c4.65 1.47 11.39 6 15.12 2.18l32.27-33 68.06-69.58c-100.24 13.99-200.47 30.7-301.04 41.94"/><path fill="#cc7a29" d="M39.93 258.47c-.69 20.49.33 17.53 18.82 23.54l71.8 23.35 120.79 39.28c0-20.38-.93-17.53-19.35-23.49l-75.8-24.51L77 271.04c-11.53-3.73-27.13-6.57-37.08-12.57"/><path fill="#e6a145" d="M256.52 325.68v17.23l63.3-63.98 36.12-36.5c9.24-9.33 8.58-10.7 8.58-24.75l-54 54.28c-16.65 16.74-35.76 41.32-54 53.72"/><path d="M343.26 237.79c-20.72 16.78-.8 9.15-5.17 21.83-3.26 9.45-33.9 9.47-33.9 16.37 0 12.86-4.23 10.31-12.06 18.1-10.1 10.04-8.77 27.1-25.85 32.17-5.68 1.68-19.83 2-24.7-2.87-9.3-9.29-7.92-8.4-22.4-8.04-10.73.27-21.7 1.56-31.27-3.4-8.7-4.5-15.39-13.28-24.68-14.83-12.74-2.12-22.58-1.76-34.96-1.97-24.52-.42-33.08-1.46-51.2-17.16-9.5-8.25-14.1-4.58-26.23-4.58-15.57 0-8.13-13.97-3.25-20.06 3.92-4.9 22.71-4.15 28.48-4.93l75.13-10.2 160.66-21.8a293991 293991 0 0 0 33.03-4.47c1.92-.26 22.77 2.53 22.37 1.33 3 8.98-.97 18.37-12.51 15.9 9.11 9.02-5.31 16.02-11.5 8.61"/><path fill="#8ede51" d="M343.83 225.72a15.28 15.28 0 0 1 9.77 9.2c-5.22 3.01-7.14-2.1-12.06-1.15-4.46.84-10.82 7.56-14.55 10.17-6.24 4.37 2.54 4.32 2.48 8.21-.06 4.12 3.71 4.43-.86 7.47-3.44 2.29-9 6.24-12.35 7.47-3.6 1.33-13.65.17-16.09 2.87-.9 1.01.1 4.6-.57 5.75-2.56 4.43-.63 7.2-4.02 10.91-2.58 2.81-8.57 3.5-10.92 6.32-6.42 7.74-4.61 18.8-13.78 25.28-6.37 4.5-17.96 5.99-25.28 1.72-3.19-1.85-3.95-6.75-6.9-8.62-3.63-2.3-7.07-1.72-12.93-1.72-8.94 0-19.6 2.55-28.43.58-9.7-2.17-18.16-9.54-24.96-16.34-5.73-5.73-26.32-5.81-34.28-4.22-18.87 3.78-35.76.08-51.87-8.81-4.8-2.65-8.77-14.85-15.37-14.17-8.43.87-19.53 4.87-25.19-3.58 15.76-10.5 30.17-10.46 49.07-12.99l111.32-14.88 105.52-14.12 29.79-3.98c7.96-1.06 15.83 4.73 22.57-.56 2.73 11.74-12.17 9.19-20.1 9.19"/><path d="M136.44 252.73c.31 29.7-100.29 30.35-105.13-1.16-3.87-25.24 25.6-18.16 39.96-15.8 9.99 1.65 69.36 5.42 65.17 16.96"/><path fill="#e61919" d="M35.33 243.53c-4.15 38.41 100.46 30.3 97.67 6.32-23.69 12.65-78.84 17.28-97.67-6.32"/><path fill="#e62e2e" d="M131.27 245.25c-17.87 10.36-76 18.66-90.2-2.58-5.35-8.03 14.72-9.45 18.07-8.91l72.13 11.49"/><path fill="#ff8080" d="M57.16 233.76c-10.14.62-15.35 7.24-2.87 9.77 7.82 1.58 14.6-7 21.26-4.02v1.15c-29.26-.48 21.96 23.48 12.63 2.29l4.02-.57c-5.99 14.72 26.79 9.42 27.58 3.44.82-6.2-55.88-11.05-62.62-12.06"/><path d="M265.7 267.09c-1.95 12.5-1.48 20.32-12.64 27.29-11.45 7.16-23.65 10.05-37.06 10.05-26.3 0-58.29-9.25-76.12-29.3-2.87-3.23-7-7.77-8.04-12.07-.5-2.05 1.84-17.31 2.49-17.2l38.04 6.28 63.5 10.5c8.23 1.36 23.9 5.41 29.83 4.45"/><path fill="#e61919" d="M261.68 269.38c-8 35.22-49.6 32.6-78.7 24.7-14.36-3.9-33.76-12.52-42.52-25.28-5.17-7.54-2.6-10.64-2.3-20.1 9.36 22.9 36.4 34.25 59.18 38.5 19.2 3.57 55.44 3.24 64.34-17.82"/><path fill="#e62e2e" d="M258.24 266.51c-29.49 37.35-92.41 12.68-115.48-18.96 37.86.75 78.82 21.04 115.48 18.96"/><path fill="#ff8080" d="M164.6 251.57c-14.06-6.42-6.45 7.04 1.44 11.78 2.83 1.7 7.9 6.95 11.77 5.45 3.1-1.19-.4-10.55 4.6-9.18 5.07 1.38-.2 7.59 1.72 10.34 3.7 5.31 11.47 6.29 17.81 7.46 4.94.92 17 4.05 18.96-1.14.65-1.73-4.64-9.24-5.17-11.5 7.38 1.52 8.48 11.5 14.93 11.5 4.92 0 17.81-1.9 17.81-8.9 0-9.32-74.24-15.1-83.87-15.81"/><path d="M354.75 180.92c31.3 24.67-6.52 50.77-31.81 58-9.5 2.71-29.74 2.62-15.78-10.88 13.2-12.76 41.06-31.3 47.59-47.12"/><path fill="#e61919" d="M356.47 201.02c-5.78 20.87-33.92 26.3-52.28 28.15-.43 1.98-.15 6.14.58 8.04 20.14-2.02 42.34-7.22 54.26-25.09 7.7-11.54 3.44-21.38-6.58-28.34 5.38 3.8 7.05 11.92 4.02 17.24"/><path fill="#e62e2e" d="M349.58 186.66c22.97 15.07-25.69 36.27-37.34 36.77 11.91-11.56 28.47-24.84 37.34-36.77"/><path d="M309.36 222.27c32.58 21.42-5.46 53.85-29.8 60.35-4.5 1.2-15.08 5.16-19.6 3.42-4.7-1.81-7.86-7.72-2.6-12.86l52-50.91"/><path fill="#e61919" d="M311.09 242.95c-4.4 13.65-15.8 20.22-28.52 25.1-9.06 3.5-30.4-.17-27.2 13.4 24.62-.65 89.13-29.16 51.12-56.88 5.48 3.26 8.52 13.8 4.6 18.38"/><path fill="#e62e2e" d="M303.62 228.02c24.51 15.21-27.06 38.47-39.64 38.5 12.62-12.08 30.29-25.86 39.64-38.5"/><path d="M34.18 222.27c.71 18.42 2.42 15.27 20.04 18.41l73.85 13.2c33.68 6.03 65.07 14.18 98.02 23.65 8.97 2.58 31.42 14.49 38.74 7.02l47.01-47.96c10.58-10.79 22.45-20.1 34-29.83l24.95-21c4.63-3.9.87-11.94.05-17.5L34.19 222.28"/><path fill="#ffb34d" d="M38.2 233.19c63.47 11.17 125.17 22.37 187.13 39.28 5.23 1.43 32.85 12.52 36.06 9.25l42.19-43.07c9.14-9.34 18.45-17.66 28.44-26.14 8.37-7.12 41.3-25.67 35.94-39.07-24.98 21.57-50.48 42.45-73.53 66.07-11.16 11.43-22.58 22.63-33.9 33.9-3.74 3.72-36.59-9-42.34-10.57-58.72-16-119.58-29.44-179.98-37.7 0 2.42-.6 5.73 0 8.05"/><path fill="#fc6" d="m367.39 172.3-164.02 26.71-112.76 18.36c-15.67 2.56-36.31 9.42-51.83 7.78 61.38 10.2 122.6 22.22 182.54 38.55 5.53 1.51 35.64 13.27 39.21 9.7 11.66-11.6 23.81-22.96 34.98-35.05 9.67-10.49 20.28-19.87 31.07-29.18 9.8-8.46 37.81-25.39 40.81-36.87"/><path fill="#f93" d="M38.78 225.15c40.4 6.71 80.36 15.65 120.64 22.98 17.95 3.27 35.13 8.54 52.8 13.15 11.09 2.9 51.41 7.18 48.3 21.32-32.74-9.25-65.79-21.86-99.2-27.74l-89.7-15.79c-8.95-1.57-37.53.3-33.42-13.92 74.97 10.25 148.93 28.9 221.75 48.83L38.77 225.15"/><path d="M354.18 170c1.19-17.45-24.59-6.8-35.69-5.37l-97.02 12.56-161.22 20.86c-18.52 2.4-17.63 15.34-5.39 20.78 18.98 8.44 45.4 9.92 65.7 14.58 24.4 5.6 48.75 11.3 73.04 17.37 13.87 3.47 50.26 17.37 63.62 9.57 38.02-22.18 66.3-59 96.96-90.35"/><path fill="#ff8080" d="m49.7 207.34 179.85 40.9c23.39 5.32 36.64-2.43 52.86-18.4l67.74-66.74-153.02 20.43-101.32 13.52c-16.68 2.23-30.99 3.09-46.11 10.29"/><path fill="#e65c73" d="M349.58 162.52c4.33 8.98-12.98 20.1-18.36 25.56l-43.99 44.66c-16.42 16.68-31.73 27.7-56.44 22.1L126.9 231.27l-55-12.47c-8.47-1.92-19.44-1.35-22.2-11.46l179.85 40.9c23.4 5.32 36.64-2.43 52.87-18.41l43.02-42.38c6.75-6.65 21.1-16.96 24.14-24.93"/><path d="m97.95 205.61 17.37 3.8c3.13.7-1.1 3.56-.13 4.82 1.7 2.21.54 5.26 4.02 8.04 10.25 8.22 26.88-3.03 34.47 4.6 2.35 2.37 3.32 8.62 7.18 8.62 5.36 0 15.6-1.07 20.4 1.15 12.17 5.63 12.82 27.78 32.17 25.85 19.87-1.99 24.2-26 43.09-30.45 14.46-3.4 26.32 6.89 32.29-13.41 3.34-11.38 16.85-12.38 24.58-18.19 10.64-7.99 12.51-18.7 18.15-29.98 1.73-3.47 6.08-3.23 8.85-5.64 4.6-3.98 6.24-6.74 9.19-12.63-18.42-6.15-36.16-1.11-55.41 1.21A6478291.1 6478291.1 0 0 0 83.6 178.86c-8.12.98-9.55 3.64-16.87 8.03-8.88 5.32-6.9 6.06-4.7 16.2 1.04 4.79 14.44-2.21 16.96-3.22 0 9.9-1.18 11.13 8.05 11.49 5.2.2 7.84-.53 10.9-5.75"/><path fill="#8ede51" d="M336.37 152.19c2.79-.04 5.87 1.17 8.62 1.72-5.07 9.67-15.28 10.46-20.45 20.79-5.1 10.2-6.53 20.08-18.05 25.75-5.31 2.61-8.5.34-12.74 5-4.46 4.9-8.14 8.4-10.52 14.53-2.7 6.97-10.64 9.61-18.1 7.75-20.1-5.01-28.55 17.44-41.94 25.57-4.18 2.54-16.08 8.76-20.83 3.17-4.4-5.19-11.67-22.26-15.93-25-4.15-2.67-15.57-.58-20.4-.58-6.03 0-5.16-2.42-8.33-7.18-5.3-7.96-10.26-2.67-20.1-2.58-3.3.03-9.77-.23-12.64-1.73-5.83-3.04-2.16-2.7-5.18-7.47-4.03-6.37 7.7-5.94-8.81-8.57-3.58-.56-12.83-3.93-15.82-1.44-4.26 3.55-6.8 6.44-12.7 3.7a14.27 14.27 0 0 1 5.74-11.5l-21.83 4.6c-.65-1.7-.86-5.08-.58-6.9 6.31-.34 9.36-7.49 15.37-8.23l21.33-2.62 90.28-11.08c47.04-5.77 98.8-10.33 143.61-17.7"/><path d="m39.35 161.38 204.6 57.45c4.48 1.26 12.54 6.01 15.98 2.1L291.49 185l70.73-80.5-161.43 28.72-112.63 20.04c-14.55 2.59-34.98 9.35-48.8 8.11"/><path d="m365.09 125.18-72.94 82.86-31.82 36.14c-2.79 3.17-19.08-3.96-22.68-4.96l-135.7-37.65-51.88-14.4c-14.7-4.07-10.14-9.28-10.14-25.22l203.7 56.82c4.51 1.26 12.83 6.1 16.3 2.15l31.56-35.91 70.73-80.5c.84 6.23 2.1 16.53 2.87 20.67"/><path fill="#fffad9" d="m59.6 162.52 183.1 50.33c3.22.88 11.94 5.32 14.47 2.44l29.22-33.21 62.19-70.69-146.38 26.25-99.38 17.82c-12.92 2.31-30.46 8.5-43.21 7.06"/><path fill="#cc7a29" d="M45.1 163.1c.68 20.45 1.59 17.52 20.3 22.79l72.65 20.44 117.89 33.18c-.67-20.9-1.26-18-20.3-23.3l-72.65-20.25-117.9-32.86"/><path fill="#e6a145" d="m259.96 219.97 1.15 17.23 56.98-64.88 34.21-38.96c8.78-9.99 8.04-10.76 6.47-24.84l-49.12 56.01-34.86 39.76c-4.08 4.65-10.19 13.6-14.83 15.68"/><path d="M154.83 127.48c0 15.1-1.98 23.03 9.77 33.33 10.23 8.96 24.77 13.17 38.11 14 15.31.97 31.64 1.65 46.39-3.51 11.15-3.9 33.77-11.21 38.44-23.71 1.05-2.83.92-15.52-1.15-17.8-4.56-5.03-34.49-1.16-41.92-1.16-28.34 0-62.17 4.12-89.64-1.15"/><path fill="#e61515" d="M158.85 133.8c0 36.35 43.1 39.42 72.16 36.89 15.3-1.33 31.3-6.58 43.88-15.63 9.75-7 9.96-10.64 8.62-21.26-21.36 33.25-108.66 43.51-124.66 0"/><path fill="#e62e2e" d="M280.64 132.08c-24.87 34.74-95.78 33.98-120.07 0l62.23.3c17.77.08 41.3 3.51 57.84-.3"/><path fill="#ff8080" d="M174.36 133.23c.1 6.69 8.34 12.66 14.94 12.64 8.05-.02 9.25-7.74 17.8-9.2-1.18 5.09-8 9.42-5.16 13.22 3.39 4.53 30.14 3.18 33.9-.57 3.38-3.38.56-13.27 6.89-11.49 6.1 1.72-4.5 11.11 9.77 7.46 2.96-.76 17.46-8.1 16.08-12.06-1.23-3.56-28.85-1.15-32.64-1.15-18.65 0-45.56-3.6-61.58 1.15"/><g fill="#bfbfbf"><path d="M323.73 344.65c19.64-5.12 47.82-16.66 62.05-31.6 20.36-21.37 2.24-40.54-16.1-54 5.06 6.3 11.88 11.15 13.23 20.1a42.22 42.22 0 0 0-8.05-7.47c6.29 15.6 6.1 25.55-5.17 39.07-11.73 14.07-28.6 27.77-45.96 33.9M161.14 358.43c-36-4-70.14-10.5-104.28-22.79-14.31-5.15-59.65-29.17-44.51-50.74 1.53 25.23 30.99 38.03 51.13 46.53 31.54 13.3 64.61 18.99 97.66 27"/><path d="M34.18 260.19c-12.7 8.35-22.1 17.72-14.36 32.75-.16-4.67.28-11.19 3.73-14.65 8.12-8.15 10.05-3.95 10.63-18.1"/></g><path d="M104.27 302.13c-7.85-1.55-15.57 5.94-12.64 14.36 2.87 8.25 13.03 6.09 18.54 13.1 9.63 12.27 33.98 2.9 44.37-3.58 14.8-9.25 1.22-31.21-10.63-35.94-16.1-6.43-30.48 2.58-39.64 12.06"/><g fill="#f30"><path d="M97.38 306.15a11.22 11.22 0 0 1 1.15 12.65c-2.88-3.75-2.96-8.23-1.15-12.65M103.7 313.62l-1.15 5.17c9.63-.72 7-13.61-2.3-13.22 1.57 2.34 3.12 7.36 3.45 8.05"/></g><path fill="#007f00" d="M111.74 317.07c-8.35 6.08 4.41 11.52 9.48 13.73 4.7 2.06 16.78-1.35 21.54-3.39 6.83-2.91 12.45-6.06 13.22-13.79 1.35-13.68-11.85-19.5-22.88-21.07-6.05-.87-13.98 2.73-19.42 5.24-7.9 3.65.53 13.34-1.94 19.28"/><path fill="#91f279" d="M119.78 297.53c14.04-3.12 15.8 13.9 1.73 12.07-10.59-1.38-1.03-7.83-1.73-12.07"/><path d="M238.7 94.74c5.67-6.18 16.2-3.42 18.39 5.17 2.2 8.67-7.4 12.04-8.44 20.87-1.94 16.44-26.9 20.5-39.84 20.5-17.64 0-17.26-25.99-9.75-36.2 9.53-12.96 27.36-15.47 39.64-10.34"/><g fill="#f30"><path d="M247.32 94.16c-1.1 4.85 1.4 9 5.75 11.5.33-4.78-2.26-8.55-5.75-11.5M245.6 103.93l4.02 3.44c-7.94 6.36-13.43-7.43-5.17-12.63-.63 3.53.89 7.79 1.15 9.19"/></g><path fill="#007f00" d="M240.42 111.4c10.3-.12 2.43 11.85-.34 16.47-2.75 4.58-13.85 6.64-19 8.36-7.47 2.49-14.17.83-19.15-4.15-8.27-8.27-1.75-21.95 5.39-28.19 4.59-4.02 11.38-7.17 17.53-7.58 13.08-.87 8.17 7.34 15.57 15.09"/><path fill="#91f279" d="M223.19 99.33c-12.97 2.25-10.05 13.89 4.31 11.19 11.29-2.12-2.81-9.8-4.31-11.19"/><path d="M211.7 5.12c.61 2.89-2.6 9.03-1.72 10.9 1.48 3.2 7.24 3.24 9.2 5.75 4.49 5.8 5.3 16.58-.59 21.27 7.04 6.7-.2 15.44.36 23.58.57 8.18 7.33 29.43-4.38 31l-6.78-27.64c-1.26-5.12-.67-5.01-5.94-5.97-3.48-.63-4.53-7.52-5.76-10.59-1.55-3.88 3.81-9.23 2.4-12.68-1.04-2.55-7.68-3.33-9.2-5.75-1.54-2.47.08-7.8-.86-10.63-1.94-5.84 2.45-5.15 3.74-8.9 1.07-3.12 1.59-12.83 6.9-14.94 5.29-2.1 9.48 2.71 12.63 4.6"/><path fill="#fc6" d="m211.13 64.86 6.32 28.73c-.76-9.97-1.9-19.92-2.87-29.87-1.18 1.18-2.84.96-3.45 1.14"/><g fill="#ff0"><path d="M198.49 11.44c-2.1-20.15 21.2 7.1 2.3 7.46 3.23-3.77 1.84-4.81 2.3-9.19-1.01.66-4.85 1.89-4.6 1.73M196.76 17.18c-7.7 3.6-4.9 21.73 3.65 17.75 7.21-3.36 11.3-13.86-.2-11.43 12.8 9.94-13.36 4.86-1.15-3.44l-2.3-2.88"/><path d="M209.98 21.77c18.05 7.78 2.69 26.72-2.87 16.1l3.45-4.03 1.14 4.02c4.55-1.83 5.82-9.96-1.14-8.62.03-2.48-.95-5.16-.58-7.47"/><path d="M217.44 53.37c3.3-12.5-14.1-9.07-8.62-1.72l4.6-3.45c.17 4.55-6 10.63-7.92 4.26-1.66-5.56 2.27-9.51-.7-14.6-15.37 13.93 8.2 32.98 12.64 15.51"/></g></svg>